<svg width="40" height="40" viewBox="0 0 40 40" fill="none" xmlns="http://www.w3.org/2000/svg">
<g clip-path="url(#clip0_39_192)">
<path d="M36.6667 9H3.33333C1.49306 9 0 10.4931 0 12.3333V36.7778C0 38.6181 1.49306 40.1111 3.33333 40.1111H36.6667C38.5069 40.1111 40 38.6181 40 36.7778V12.3333C40 10.4931 38.5069 9 36.6667 9ZM12.2222 15.6667C14.6736 15.6667 16.6667 17.6597 16.6667 20.1111C16.6667 22.5625 14.6736 24.5556 12.2222 24.5556C9.77083 24.5556 7.77778 22.5625 7.77778 20.1111C7.77778 17.6597 9.77083 15.6667 12.2222 15.6667ZM20 32.1111C20 32.8472 19.3056 33.4444 18.4444 33.4444H6C5.13889 33.4444 4.44444 32.8472 4.44444 32.1111V30.7778C4.44444 28.5694 6.53472 26.7778 9.11111 26.7778H9.45833C10.3125 27.1319 11.2431 27.3333 12.2222 27.3333C13.2014 27.3333 14.1389 27.1319 14.9861 26.7778H15.3333C17.9097 26.7778 20 28.5694 20 30.7778V32.1111ZM35.5556 28.4444C35.5556 28.75 35.3056 29 35 29H25C24.6944 29 24.4444 28.75 24.4444 28.4444V27.3333C24.4444 27.0278 24.6944 26.7778 25 26.7778H35C35.3056 26.7778 35.5556 27.0278 35.5556 27.3333V28.4444ZM35.5556 24C35.5556 24.3056 35.3056 24.5556 35 24.5556H25C24.6944 24.5556 24.4444 24.3056 24.4444 24V22.8889C24.4444 22.5833 24.6944 22.3333 25 22.3333H35C35.3056 22.3333 35.5556 22.5833 35.5556 22.8889V24ZM35.5556 19.5556C35.5556 19.8611 35.3056 20.1111 35 20.1111H25C24.6944 20.1111 24.4444 19.8611 24.4444 19.5556V18.4444C24.4444 18.1389 24.6944 17.8889 25 17.8889H35C35.3056 17.8889 35.5556 18.1389 35.5556 18.4444V19.5556Z" fill="#D8DEE2"/>
</g>
<defs>
<clipPath id="clip0_39_192">
<rect width="40" height="40" fill="white"/>
</clipPath>
</defs>
</svg>
