<svg width="89" height="89" viewBox="0 0 89 89" fill="none" xmlns="http://www.w3.org/2000/svg">
<path d="M79.4643 0H9.53571C7.00669 0 4.58124 1.00465 2.79295 2.79295C1.00465 4.58124 0 7.00669 0 9.53571L0 79.4643C0 81.9933 1.00465 84.4188 2.79295 86.2071C4.58124 87.9953 7.00669 89 9.53571 89H36.8019V58.742H24.2863V44.5H36.8019V33.6452C36.8019 21.2984 44.1523 14.4784 55.4104 14.4784C60.8021 14.4784 66.4401 15.4399 66.4401 15.4399V27.5582H60.228C54.1072 27.5582 52.1981 31.3566 52.1981 35.2523V44.5H65.862L63.6767 58.742H52.1981V89H79.4643C81.9933 89 84.4188 87.9953 86.2071 86.2071C87.9953 84.4188 89 81.9933 89 79.4643V9.53571C89 7.00669 87.9953 4.58124 86.2071 2.79295C84.4188 1.00465 81.9933 0 79.4643 0Z" fill="#D8DEE2"/>
</svg>
