<svg width="102" height="102" viewBox="0 0 102 102" fill="none" xmlns="http://www.w3.org/2000/svg">
<path d="M51.02 28.0898C38.3497 28.0898 28.1297 38.3097 28.1297 50.98C28.1297 63.6503 38.3497 73.8703 51.02 73.8703C63.6903 73.8703 73.9102 63.6503 73.9102 50.98C73.9102 38.3097 63.6903 28.0898 51.02 28.0898ZM51.02 65.8617C42.8321 65.8617 36.1383 59.1878 36.1383 50.98C36.1383 42.7722 42.8122 36.0984 51.02 36.0984C59.2278 36.0984 65.9016 42.7722 65.9016 50.98C65.9016 59.1878 59.2079 65.8617 51.02 65.8617ZM80.1856 27.1535C80.1856 30.1218 77.795 32.4925 74.8465 32.4925C71.8782 32.4925 69.5075 30.1019 69.5075 27.1535C69.5075 24.205 71.8981 21.8144 74.8465 21.8144C77.795 21.8144 80.1856 24.205 80.1856 27.1535ZM95.3461 32.5722C95.0075 25.4203 93.3739 19.0851 88.1344 13.8656C82.9149 8.64604 76.5797 7.01245 69.4278 6.65386C62.0567 6.2355 39.9633 6.2355 32.5922 6.65386C25.4602 6.99253 19.125 8.62612 13.8856 13.8457C8.64614 19.0652 7.03247 25.4003 6.67388 32.5523C6.25552 39.9234 6.25552 62.0167 6.67388 69.3878C7.01255 76.5398 8.64614 82.875 13.8856 88.0945C19.125 93.314 25.4403 94.9476 32.5922 95.3062C39.9633 95.7246 62.0567 95.7246 69.4278 95.3062C76.5797 94.9675 82.9149 93.3339 88.1344 88.0945C93.354 82.875 94.9875 76.5398 95.3461 69.3878C95.7645 62.0167 95.7645 39.9433 95.3461 32.5722ZM85.8235 77.2968C84.2696 81.2015 81.2614 84.2097 77.3368 85.7835C71.4598 88.1144 57.5145 87.5765 51.02 87.5765C44.5254 87.5765 30.5602 88.0945 24.7032 85.7835C20.7985 84.2296 17.7903 81.2214 16.2165 77.2968C13.8856 71.4199 14.4235 57.4746 14.4235 50.98C14.4235 44.4855 13.9055 30.5203 16.2165 24.6632C17.7704 20.7585 20.7786 17.7503 24.7032 16.1765C30.5801 13.8457 44.5254 14.3835 51.02 14.3835C57.5145 14.3835 71.4797 13.8656 77.3368 16.1765C81.2415 17.7304 84.2497 20.7386 85.8235 24.6632C88.1543 30.5402 87.6165 44.4855 87.6165 50.98C87.6165 57.4746 88.1543 71.4398 85.8235 77.2968Z" fill="#D8DEE2"/>
</svg>
