<svg width="102" height="102" viewBox="0 0 102 102" fill="none" xmlns="http://www.w3.org/2000/svg">
<path d="M25.6979 92H7.45357V33.2469H25.6979V92ZM16.5659 25.2324C10.732 25.2324 6 20.4002 6 14.5661C6 11.7638 7.11319 9.07628 9.09468 7.09475C11.0762 5.11321 13.7636 4 16.5659 4C19.3681 4 22.0556 5.11321 24.0371 7.09475C26.0186 9.07628 27.1318 11.7638 27.1318 14.5661C27.1318 20.4002 22.3979 25.2324 16.5659 25.2324ZM93.9804 92H75.7754V63.3994C75.7754 56.5831 75.6379 47.8419 66.2898 47.8419C56.8043 47.8419 55.3507 55.2474 55.3507 62.9083V92H37.1261V33.2469H54.6239V41.2614H54.8793C57.315 36.6452 63.2648 31.7737 72.1414 31.7737C90.6057 31.7737 94 43.9329 94 59.7261V92H93.9804Z" fill="#D8DEE2"/>
</svg>
