<svg width="41" height="40" viewBox="0 0 41 40" fill="none" xmlns="http://www.w3.org/2000/svg">
<path d="M34.5938 2.5H6.40625C5.38682 2.5 4.40915 2.89509 3.68831 3.59835C2.96747 4.30161 2.5625 5.25544 2.5625 6.25L2.5625 33.75C2.5625 34.7446 2.96747 35.6984 3.68831 36.4016C4.40915 37.1049 5.38682 37.5 6.40625 37.5H34.5938C35.6132 37.5 36.5909 37.1049 37.3117 36.4016C38.0325 35.6984 38.4375 34.7446 38.4375 33.75V6.25C38.4375 5.25544 38.0325 4.30161 37.3117 3.59835C36.5909 2.89509 35.6132 2.5 34.5938 2.5ZM33.2813 26.5133L32.0801 31.5914C32.0191 31.8496 31.8702 32.08 31.6577 32.245C31.4452 32.41 31.1817 32.4999 30.9102 32.5C18.0977 32.5 7.6875 22.3664 7.6875 9.84375C7.69703 9.58129 7.79266 9.32875 7.96031 9.12328C8.12796 8.91781 8.35878 8.77026 8.61881 8.70234L13.8239 7.53047C13.9127 7.51215 14.003 7.50195 14.0938 7.5C14.326 7.51144 14.5509 7.58333 14.7451 7.70821C14.9393 7.83309 15.0957 8.0064 15.198 8.21016L17.6004 13.6789C17.6592 13.8264 17.692 13.9825 17.6973 14.1406C17.6777 14.4875 17.5196 14.8132 17.2568 15.0477L14.2227 17.4695C16.0611 21.271 19.1972 24.3306 23.0937 26.1242L25.5762 23.1641C25.8165 22.9077 26.1503 22.7535 26.5059 22.7344C26.668 22.7395 26.828 22.7714 26.9791 22.8289L32.5846 25.1727C32.7935 25.2724 32.9713 25.4249 33.0993 25.6144C33.2273 25.8039 33.3009 26.0233 33.3125 26.25C33.3109 26.3385 33.3004 26.4267 33.2813 26.5133Z" fill="#D8DEE2"/>
</svg>
